<svg id="Layer_1" data-name="Layer 1" xmlns="http://www.w3.org/2000/svg" viewBox="0 0 279 312.39"><defs><style>.cls-1{fill:#231f20;}.cls-1,.cls-2{stroke:#231f20;}.cls-1,.cls-2,.cls-3{stroke-miterlimit:10;}.cls-2{fill:none;}.cls-3{fill:#fff;stroke:#fff;}</style></defs><title>levels logo</title><path class="cls-1" d="M395.61,289.75V429.46A25.59,25.59,0,0,1,370,455.05h0a25.59,25.59,0,0,1-25.59-25.59V277.37a25.47,25.47,0,0,1,4-13.76,139.06,139.06,0,0,0-16.86-4.25V471.72a25.59,25.59,0,0,1-51.18,0V259.36a139,139,0,1,0,115.2,30.39Zm-128,139.71A25.59,25.59,0,0,1,242,455.05h0a25.59,25.59,0,0,1-25.59-25.59V362.54A25.59,25.59,0,0,1,242,337h0a25.59,25.59,0,0,1,25.59,25.59Z" transform="translate(-166.5 -223.11)"/><path class="cls-2" d="M331.59,259.36V249.2a25.59,25.59,0,1,0-51.18,0v10.16" transform="translate(-166.5 -223.11)"/><path class="cls-3" d="M289.72,258" transform="translate(-166.5 -223.11)"/><path class="cls-3" d="M331.09,259.27" transform="translate(-166.5 -223.11)"/><path class="cls-2" d="M280.41,259.36V471.72a25.59,25.59,0,0,0,51.18,0V259.36" transform="translate(-166.5 -223.11)"/><path class="cls-2" d="M395.61,289.75V277.37A25.59,25.59,0,0,0,370,251.78h0a25.58,25.58,0,0,0-21.57,11.83l.32.1" transform="translate(-166.5 -223.11)"/><path class="cls-3" d="M394.55,288.86" transform="translate(-166.5 -223.11)"/><path class="cls-3" d="M394.55,288.86" transform="translate(-166.5 -223.11)"/><path class="cls-3" d="M348.77,263.71" transform="translate(-166.5 -223.11)"/><path class="cls-2" d="M348.45,263.61a25.47,25.47,0,0,0-4,13.76V429.46A25.59,25.59,0,0,0,370,455.05h0a25.59,25.59,0,0,0,25.59-25.59V289.75" transform="translate(-166.5 -223.11)"/><path class="cls-3" d="M362.74,269.08" transform="translate(-166.5 -223.11)"/></svg>