<svg id="Layer_1" data-name="Layer 1" xmlns="http://www.w3.org/2000/svg" viewBox="0 0 480 480"><defs><style>.cls-1{fill:#fff;}</style></defs><title>library-filled</title><path class="cls-1" d="M472,16H168a24,24,0,0,0-24,24V344a24,24,0,0,0,24,24H472a24,24,0,0,0,24-24V40A24,24,0,0,0,472,16Z" transform="translate(-16 -16)"/><path class="cls-1" d="M112,400V80H80V408a24,24,0,0,0,24,24H432V400Z" transform="translate(-16 -16)"/><path class="cls-1" d="M48,464V144H16V472a24,24,0,0,0,24,24H368V464Z" transform="translate(-16 -16)"/></svg>