<svg id="Layer_1" data-name="Layer 1" xmlns="http://www.w3.org/2000/svg" viewBox="0 0 749.69 350.42"><defs><style>.cls-1{fill:#fff;}</style></defs><title>loop-filled</title><path class="cls-1" d="M723.75,276.26a175,175,0,0,0-247.48,0l-75.9,75.89-75.89-75.9a175,175,0,1,0,0,247.49l75.89-75.89,75.89,75.89A175,175,0,0,0,724.59,277.1ZM289.12,488.39a125,125,0,1,1,0-176.78l86.25,86.25v4.29Zm399.27,0a125,125,0,0,1-176.78,0l-86.25-86.25v-4.29l86.25-86.25A125,125,0,0,1,688.39,488.39Z" transform="translate(-25.74 -224.99)"/></svg>