<svg id="Layer_1" data-name="Layer 1" xmlns="http://www.w3.org/2000/svg" viewBox="0 0 801 681.34"><defs><style>.cls-1{fill:#fff;stroke:#fff;stroke-miterlimit:10;}</style></defs><title>loop-filled</title><path class="cls-1" d="M47.06,423.53c0,99.2,73.53,180.7,166.37,187.74a14.16,14.16,0,0,1,13.06,14.14v18.73a14.16,14.16,0,0,1-15.06,14.17C93.53,650.23,0,548,0,423.53,0,293.79,101.6,188.24,226.49,188.24H391.25a14.19,14.19,0,0,0,10-24.23l-43.2-43.2a14.2,14.2,0,0,1,0-20.07l13.2-13.2a14.2,14.2,0,0,1,20.07,0L505.59,201.73a14.2,14.2,0,0,1,0,20.07L391.4,336a14.18,14.18,0,0,1-20.07,0l-13.25-13.24a14.19,14.19,0,0,1,0-20.07l43.22-43.2a14.19,14.19,0,0,0-10-24.23H226.49c-98.91,0-179.43,84.43-179.43,188.24ZM573.51,202.92v18.73a14.16,14.16,0,0,0,13.06,14.14c92.84,7,166.37,88.54,166.37,187.74,0,103.81-80.52,188.23-179.43,188.23H408.71a14.19,14.19,0,0,1-10-24.22l43.2-43.2a14.2,14.2,0,0,0,0-20.07l-13.2-13.2a14.2,14.2,0,0,0-20.07,0L294.41,625.26a14.2,14.2,0,0,0,0,20.07L408.65,759.57a14.2,14.2,0,0,0,20.07,0l13.2-13.21a14.2,14.2,0,0,0,0-20.07l-43.25-43.24a14.19,14.19,0,0,1,10-24.23H573.46C698.4,658.82,800,553.27,800,423.53c0-124.48-93.53-226.7-211.43-234.78A14.16,14.16,0,0,0,573.51,202.92Z" transform="translate(0.5 -82.88)"/></svg>