<svg id="Layer_1" data-name="Layer 1" xmlns="http://www.w3.org/2000/svg" viewBox="0 0 533.33 600"><defs><style>.cls-1{fill:#fff;}</style></defs><title>pause</title><path class="cls-1" d="M160,100H306.67a26.67,26.67,0,0,1,26.66,26.67h0V673.33A26.67,26.67,0,0,1,306.67,700H160a26.67,26.67,0,0,1-26.67-26.67V126.67A26.67,26.67,0,0,1,160,100Zm333.33,0H640a26.67,26.67,0,0,1,26.67,26.67V673.33A26.67,26.67,0,0,1,640,700H493.33a26.67,26.67,0,0,1-26.66-26.67V126.67A26.67,26.67,0,0,1,493.33,100Z" transform="translate(-133.33 -100)"/></svg>