<svg id="Capa_1" data-name="Capa 1" xmlns="http://www.w3.org/2000/svg" viewBox="0 0 487.95 487.55"><defs><style>.cls-1{fill:#f24c27;}</style></defs><title>search</title><path class="cls-1" d="M481.8,452.8l-140-140.1A189.14,189.14,0,0,0,386,191.1C386,85.7,299.5,0,193.1,0S0,85.8,0,191.2,86.5,382.3,192.9,382.3a193.43,193.43,0,0,0,119.8-41.4L453.2,481.4c8.2,8.2,20.4,8.2,28.6,0S490,461,481.8,452.8ZM41,191.2c0-82.8,68.2-150.1,151.9-150.1s151.9,67.3,151.9,150.1S276.6,341.3,192.9,341.3,41,273.9,41,191.2Z"/></svg>