<svg id="Layer_1" data-name="Layer 1" xmlns="http://www.w3.org/2000/svg" viewBox="0 0 662.4 529.02"><defs><style>.cls-1{fill:#fff;}</style></defs><title>volume</title><g id="Volume_High" data-name="Volume High"><path class="cls-1" d="M460.53,664.57a48.24,48.24,0,0,1-23.9-6.47l-122.3-70.67A108.46,108.46,0,0,0,260.17,573H148a79.31,79.31,0,0,1-79.17-79.2V306.23A79.26,79.26,0,0,1,148,227.07h112.2a108.54,108.54,0,0,0,54.16-14.54L436.67,142a47.9,47.9,0,0,1,71.83,41.36V616.67a47.48,47.48,0,0,1-23.93,41.5A48.27,48.27,0,0,1,460.53,664.57ZM331,241.4a141.69,141.69,0,0,1-70.83,19H148a45.91,45.91,0,0,0-45.84,45.83V493.77A45.93,45.93,0,0,0,148,539.63h112.2a141.92,141.92,0,0,1,70.83,19l122.33,70.6a14.63,14.63,0,0,0,21.9-12.67V183.33a14.59,14.59,0,0,0-21.9-12.63" transform="translate(-68.8 -135.55)"/><path class="cls-1" d="M613.57,208.73c105.81,96.8,113.11,261,16.31,366.86q-7.47,8.17-15.61,15.68c-15.8,14.56,7.83,38.1,23.56,23.56C756.3,504.52,762.92,319.06,652.61,200.59q-7.46-8-15.48-15.42c-15.8-14.47-39.46,9.06-23.56,23.56Z" transform="translate(-68.8 -135.55)"/><path class="cls-1" d="M563.67,301a134,134,0,0,1,9,189.34q-4.1,4.5-8.56,8.6c-15.8,14.6,7.8,38.1,23.56,23.56a167.49,167.49,0,0,0,8-236.74q-4-4.31-8.35-8.32C571.43,263,547.8,286.53,563.67,301Z" transform="translate(-68.8 -135.55)"/></g></svg>